# xmcd
#
# Track frame offsets:
#	150
#	17768
#	37790
#	56779
#	71834
#	86781
#	105829
#	126105
#	143203
#	157222
#	174268
#	192949
#	212949
#	230128
#	242336
#	263631
#	281194
#	298980
#	317771
#	339781
#
# Disc length: 4731 seconds
#
# Revision: 0
# Processed by: cddbd v1.5.2PL0 Copyright (c) Steve Scherf et al.
# Submitted via: dBpowerAMP V4.0
#
DISCID=2b127914
DTITLE=Faith Hill - The Best Of Faith Hill
DYEAR=2004
DGENRE=Country
TTITLE0=Mississipi Girl
TTITLE1=Like we never loved at all
TTITLE2=Breathe
TTITLE3=The Kiss
TTITLE4=It matters to me
TTITLE5=Let's make Love ft. Tim McGraw
TTITLE6=Just to hear you say you love
TTITLE7=Cry
TTITLE8=The way you love me
TTITLE9=There you'll be
TTITLE10=Where are you Christmas
TTITLE11=Let me let go
TTITLE12=Its your love ft. Tim McGraw
TTITLE13=She's a wild one
TTITLE14=Beautiful
TTITLE15=Daddy's little girl
TTITLE16=Take another piece of my heart
TTITLE17=Baby you belong
TTITLE18=Strawberry wine
TTITLE19=You're still here
EXTD=
EXTT0=
EXTT1=
EXTT2=
EXTT3=
EXTT4=
EXTT5=
EXTT6=
EXTT7=
EXTT8=
EXTT9=
EXTT10=
EXTT11=
EXTT12=
EXTT13=
EXTT14=
EXTT15=
EXTT16=
EXTT17=
EXTT18=
EXTT19=
PLAYORDER=
